<svg width="390" height="1167" viewBox="0 0 390 1167" fill="none" xmlns="http://www.w3.org/2000/svg">
<path d="M489.376 368.241C667.112 684.58 509.218 811.428 344.876 943.745C180.535 1076.06 25.0204 1126.9 -119.124 1014.25C-197.449 953.034 -235.22 812.66 -298.754 688.667C-381.028 528.101 -343.363 260.81 -119.124 215.747C109.248 169.854 325.876 77.2394 489.376 368.241Z" fill="url(#paint0_linear_0_9548)"/>
<path d="M-267.686 493.466C-208.275 318.018 -169.461 336.412 -89.4545 160.964C-9.44836 -14.4832 182.249 12.8731 342.658 203.883C503.066 394.893 561.285 563.226 414.742 675.044C280.093 777.788 195.32 641.086 68.5774 767.484C-58.1649 893.882 -313.521 628.824 -267.686 493.466Z" fill="url(#paint1_linear_0_9548)"/>
<path d="M-355.945 524.436C-300.945 383.492 -225.473 454.771 -68.7511 327.096C87.9705 199.42 375.377 150.242 425.797 383.492C455.466 520.742 423.877 531.545 503.877 694.241C583.877 856.937 455.652 1011.08 258.556 1002.94C82.1188 995.645 49.0553 915.936 -134.945 864.936C-318.945 813.937 -415.092 676.008 -355.945 524.436Z" fill="url(#paint2_linear_0_9548)"/>
<defs>
<linearGradient id="paint0_linear_0_9548" x1="-49.8726" y1="220.065" x2="290.552" y2="975.469" gradientUnits="userSpaceOnUse">
<stop stop-color="#97E6FF"/>
<stop offset="1" stop-color="#E8FFFE"/>
</linearGradient>
<linearGradient id="paint1_linear_0_9548" x1="9.74666" y1="43.7926" x2="131.19" y2="882.316" gradientUnits="userSpaceOnUse">
<stop stop-color="#42A4FF"/>
<stop offset="1" stop-color="#57E1FF"/>
</linearGradient>
<linearGradient id="paint2_linear_0_9548" x1="331.556" y1="1021.44" x2="58.4796" y2="229.465" gradientUnits="userSpaceOnUse">
<stop stop-color="#6788FF"/>
<stop offset="1" stop-color="#C293FF"/>
</linearGradient>
</defs>
</svg>
