<svg width="1920" height="1087" viewBox="0 0 1920 1087" fill="none" xmlns="http://www.w3.org/2000/svg">
<path d="M338 101.883C4.4075 241.112 -151 -72.3823 -55.9996 313.045L-55.9996 1086.74H1922.63L2030 162.053C1784.5 22.4136 1565 316.451 1219 212.573C894.359 115.107 736.5 -64.4354 338 101.883Z" fill="#E5E9FF"/>
<path d="M355.5 193.84C52.0175 311.781 -158 -109.848 -158 335.75L-56 1082.7H1922.63V0.842285C1765 28.089 1600.89 243.792 1243 243.792C917.5 243.792 726.5 49.6593 355.5 193.84Z" fill="#3941FF" fill-opacity="0.4"/>
<path d="M534 158.647C340.5 223.926 287.5 297.719 -55.5 297.719V1086.74H1923.13L1958.5 158.647C1775.5 285.799 1540.5 310.91 1318 257.984C1039.7 191.786 876.368 43.1469 534 158.647Z" fill="#8A2EFF" fill-opacity="0.5"/>
</svg>
