<svg width="93" height="91" viewBox="0 0 93 91" fill="none" xmlns="http://www.w3.org/2000/svg">
<path d="M18.4934 25.0876C6.49372 37.5791 -0.00623742 53.072 13.9933 66.0688C25.9938 77.2098 35.4937 84.5607 55.9936 79.563C76.4935 74.5653 84.349 64.2218 84.349 48.5594C84.3489 33.584 73.0913 30.1997 60.9934 17.5914C37.4938 -6.89968 28.2515 14.9295 18.4934 25.0876Z" fill="#92C4FF"/>
<path d="M78.0001 33.5001C78.0001 64.5001 67.0001 70 56.0001 75.5641C45.0002 81.1282 25.5001 88.4999 17.5001 75C9.72013 61.8713 18.475 57.5782 15.0001 46.0001C10.5001 31.0065 16.6704 12.2434 31.5001 14.5001C54.5001 18 78.0001 8.32138 78.0001 33.5001Z" fill="#907AFF"/>
<path d="M65.783 51.3352C65.9147 50.37 65.9844 49.3856 65.9844 48.3848C65.9844 42.3663 63.5099 36.8613 59.4824 32.9131C59.4568 32.8854 59.4304 32.8594 59.4023 32.8351C56.3374 29.8613 52.3863 27.7846 47.9463 27.057C47.588 25.4498 46.1558 24.2451 44.448 24.2451C42.7384 24.2451 41.305 25.4498 40.9463 27.0565C38.5796 27.443 36.3103 28.2206 34.1904 29.3754C33.6714 29.6582 33.4792 30.3098 33.7612 30.8302C33.9555 31.1881 34.323 31.3912 34.7028 31.3912C34.8753 31.3912 35.0502 31.3492 35.2126 31.2607C37.0707 30.2486 39.0555 29.5579 41.1254 29.2012C41.6609 30.5146 42.9483 31.4428 44.448 31.4428C45.946 31.4428 47.2317 30.515 47.7671 29.2016C50.7267 29.7131 53.4412 30.8918 55.7638 32.5707H51.6754C49.4725 32.5707 47.6803 34.3688 47.6803 36.5789C47.6803 38.7874 49.4725 40.5842 51.6754 40.5842C52.6968 40.5842 53.5272 41.42 53.5272 42.4468C53.5272 43.4741 52.6968 44.3095 51.6754 44.3095H51.0565C48.8552 44.3095 47.0643 46.1063 47.0643 48.3152C47.0643 50.5253 48.8552 52.3233 51.0565 52.3233H63.4449C61.6258 61.1773 53.7991 67.8546 44.448 67.8546C40.188 67.8546 36.2449 66.4682 33.0415 64.123H37.1412C39.3442 64.123 41.1364 62.3253 41.1364 60.1148C41.1364 57.9063 39.3442 56.1096 37.1412 56.1096C36.1198 56.1096 35.2894 55.2741 35.2894 54.2469C35.2894 53.2213 36.1198 52.3871 37.1412 52.3871H37.7572C39.9602 52.3871 41.7523 50.5891 41.7523 48.379C41.7523 46.1684 39.9602 44.3704 37.7572 44.3704H25.4574C26.0574 41.4788 27.3104 38.7697 29.1668 36.3901C29.5306 35.9235 29.4483 35.2491 28.9826 34.8841C28.5172 34.519 27.8446 34.6017 27.4803 35.0687C24.4893 38.9036 22.9082 43.5085 22.9082 48.3848C22.9082 54.3648 25.3411 59.7854 29.2654 63.7025C29.3275 63.7831 29.4001 63.8544 29.4823 63.9148C33.3604 67.6796 38.6388 70.0001 44.448 70.0001C55.2783 70.0001 64.2652 61.9347 65.7632 51.474C65.7729 51.4287 65.7792 51.3826 65.783 51.3352ZM25.1364 46.5163H37.7572C38.7798 46.5163 39.6119 47.3517 39.6119 48.379C39.6119 49.4058 38.7798 50.2416 37.7572 50.2416H37.1412C34.9399 50.2416 33.1489 52.038 33.1489 54.2469C33.1489 56.457 34.9399 58.2551 37.1412 58.2551C38.1638 58.2551 38.9959 59.0892 38.9959 60.1148C38.9959 61.1416 38.1638 61.9775 37.1412 61.9775H30.5733C27.1572 58.4661 25.0487 53.6682 25.0487 48.3848C25.0487 47.7562 25.0789 47.1331 25.1364 46.5163ZM44.448 29.2969C43.649 29.2969 42.9995 28.6444 42.9995 27.8425C42.9995 27.0419 43.649 26.3906 44.448 26.3906C45.2448 26.3906 45.8931 27.0419 45.8931 27.8425C45.8931 28.6444 45.2448 29.2969 44.448 29.2969ZM51.0565 50.1774C50.0352 50.1774 49.2047 49.342 49.2047 48.3148C49.2047 47.2896 50.0352 46.455 51.0565 46.455H51.6754C53.8768 46.455 55.6677 44.657 55.6677 42.4468C55.6677 40.2367 53.8768 38.4387 51.6754 38.4387C50.6528 38.4387 49.8207 37.6045 49.8207 36.5789C49.8207 35.5517 50.6528 34.7162 51.6754 34.7162H58.2559C61.7248 38.2515 63.8439 43.0981 63.8439 48.3848C63.8439 48.9891 63.815 49.587 63.7608 50.1774H51.0565Z" fill="white"/>
<path d="M31.0312 33.9365C31.2368 33.9365 31.4449 33.8773 31.6287 33.7531L31.6467 33.7409C32.1369 33.4099 32.2661 32.7431 31.9354 32.2517C31.6052 31.7604 30.9401 31.6307 30.45 31.9622L30.432 31.9744C29.9418 32.3054 29.8126 32.9726 30.1428 33.4636C30.3497 33.7707 30.6871 33.9365 31.0312 33.9365Z" fill="white"/>
</svg>
