<svg width="93" height="91" viewBox="0 0 93 91" fill="none" xmlns="http://www.w3.org/2000/svg">
<path d="M18.4934 25.0876C6.49372 37.5791 -0.00623742 53.072 13.9933 66.0688C25.9938 77.2098 35.4937 84.5607 55.9936 79.563C76.4935 74.5653 84.349 64.2218 84.349 48.5594C84.3489 33.584 73.0913 30.1997 60.9934 17.5914C37.4938 -6.89968 28.2515 14.9295 18.4934 25.0876Z" fill="#92C4FF"/>
<path d="M78.0001 33.5001C78.0001 64.5001 67.0001 70 56.0001 75.5641C45.0002 81.1282 25.5001 88.4999 17.5001 75C9.72013 61.8713 18.475 57.5782 15.0001 46.0001C10.5001 31.0065 16.6704 12.2434 31.5001 14.5001C54.5001 18 78.0001 8.32138 78.0001 33.5001Z" fill="#907AFF"/>
<path d="M40.5844 42.1793C42.2539 42.1793 43.6073 40.8259 43.6073 39.1564C43.6073 37.4869 42.2539 36.1335 40.5844 36.1335C38.9149 36.1335 37.5615 37.4869 37.5615 39.1564C37.5615 40.8259 38.9149 42.1793 40.5844 42.1793Z" fill="white"/>
<path d="M65.3969 50.2824C63.9695 48.9389 62.1641 48.0572 60.1908 47.8053V32.4389C60.1908 30.8015 59.5191 29.332 58.4695 28.2404C57.3779 27.1488 55.9084 26.519 54.271 26.519H29.9198C28.2824 26.519 26.813 27.1908 25.7214 28.2404C24.6298 29.332 24 30.8015 24 32.4389V51.7939V53.5992V57.5038C24 59.1412 24.6718 60.6106 25.7214 61.7023C26.813 62.7939 28.2824 63.4236 29.9198 63.4236H53.4733C55.0267 64.6832 56.958 65.4809 59.0992 65.4809C61.5763 65.4809 63.8015 64.4732 65.3969 62.8778C66.9924 61.2824 68 59.0572 68 56.5801C68 54.103 66.9924 51.8778 65.3969 50.2824ZM26.2252 32.4389C26.2252 31.4313 26.645 30.5076 27.3168 29.8778C27.9885 29.2061 28.9122 28.7862 29.9198 28.7862H54.271C55.2786 28.7862 56.2023 29.2061 56.874 29.8778C57.5458 30.5496 57.9656 31.4732 57.9656 32.4809V45.5801L51.7519 39.3664C51.3321 38.9465 50.6183 38.9045 50.1565 39.3664L40.7939 48.771L34.4542 42.3893C34.0344 41.9694 33.3206 41.9274 32.8588 42.3893L26.2252 49.1068V32.4389ZM29.8779 61.2824V61.1984C28.8702 61.1984 27.9466 60.7786 27.2748 60.1068C26.645 59.4351 26.2252 58.5114 26.2252 57.5038V53.5992V52.2977L33.6565 44.8244L39.9962 51.1641C40.416 51.5839 41.1298 51.5839 41.5916 51.1641L50.9542 41.7595L57.084 47.9313C56.958 47.9732 56.8321 48.0152 56.7061 48.0572C56.5382 48.0992 56.3702 48.1412 56.1603 48.2252C55.9924 48.2671 55.8244 48.3511 55.6565 48.3931C55.5305 48.4351 55.4466 48.4771 55.3206 48.561C55.1527 48.645 55.0267 48.687 54.9008 48.771C54.6908 48.8969 54.4809 49.0229 54.271 49.1488C54.145 49.2328 54.0611 49.2748 53.9351 49.3587C53.8511 49.4007 53.8092 49.4427 53.7252 49.4847C53.3473 49.7366 53.0114 50.0305 52.7176 50.3664C51.1221 51.9618 50.1145 54.187 50.1145 56.6641C50.1145 57.2939 50.1985 57.8816 50.3244 58.5114C50.3664 58.6793 50.4084 58.8053 50.4504 58.9732C50.5763 59.3931 50.7023 59.8129 50.8702 60.2328V60.2748C51.0382 60.6106 51.2061 60.9885 51.416 61.2824H29.8779ZM63.7595 61.2824C62.542 62.5 60.9046 63.2137 59.0573 63.2137C57.2939 63.2137 55.6565 62.5 54.4809 61.3664C54.313 61.1984 54.145 60.9885 53.9771 60.8206C53.8511 60.6946 53.7252 60.5267 53.5992 60.4007C53.4313 60.1908 53.3053 59.9389 53.1794 59.687C53.0954 59.519 53.0114 59.3931 52.9275 59.2252C52.8435 59.0152 52.7595 58.7633 52.7176 58.5114C52.6756 58.3435 52.5916 58.1335 52.5496 57.9656C52.4656 57.5458 52.4237 57.0839 52.4237 56.6221C52.4237 54.7748 53.1794 53.1374 54.355 51.9198C55.5305 50.7022 57.2099 49.9885 59.0573 49.9885C60.9046 49.9885 62.542 50.7442 63.7595 51.9198C64.9771 53.1374 65.6908 54.7748 65.6908 56.6221C65.6908 58.4274 64.9351 60.0648 63.7595 61.2824Z" fill="white"/>
<path d="M59.8552 52.0878C59.7712 52.0039 59.6452 51.9199 59.4773 51.8359C59.3513 51.7939 59.2254 51.752 59.0994 51.752C59.0574 51.752 59.0574 51.752 59.0574 51.752C59.0155 51.752 59.0155 51.752 59.0155 51.752C58.8895 51.752 58.7636 51.7939 58.6376 51.8359C58.5116 51.8779 58.3857 51.9619 58.2597 52.0878L55.6567 54.6909C55.2368 55.1107 55.2368 55.8245 55.6567 56.2863C56.0765 56.7062 56.7903 56.7062 57.2521 56.2863L57.9239 55.6145V60.2329C57.9239 60.8626 58.4277 61.3665 59.0574 61.3665C59.6872 61.3665 60.191 60.8626 60.191 60.2329V55.6145L60.8628 56.2863C61.2826 56.7062 61.9964 56.7062 62.4582 56.2863C62.8781 55.8665 62.8781 55.1527 62.4582 54.6909L59.8552 52.0878Z" fill="white"/>
</svg>
