<svg width="93" height="91" viewBox="0 0 93 91" fill="none" xmlns="http://www.w3.org/2000/svg">
<path d="M18.4934 25.0878C6.49372 37.5793 -0.00623742 53.0722 13.9933 66.069C25.9938 77.21 35.4937 84.561 55.9936 79.5633C76.4935 74.5656 84.349 64.2221 84.349 48.5596C84.3489 33.5843 73.0913 30.1999 60.9934 17.5916C37.4938 -6.89944 28.2515 14.9297 18.4934 25.0878Z" fill="#92C4FF"/>
<path d="M78.0001 33.4999C78.0001 64.4999 67.0001 69.9998 56.0001 75.5639C45.0002 81.1279 25.5001 88.4997 17.5001 74.9997C9.72013 61.871 18.475 57.578 15.0001 45.9999C10.5001 31.0063 16.6704 12.2432 31.5001 14.4998C54.5001 17.9997 78.0001 8.32113 78.0001 33.4999Z" fill="#907AFF"/>
<g clip-path="url(#clip0_79_47)">
<path d="M55.8061 31.9595C56.2591 31.9595 56.6264 31.5921 56.6264 31.1392C56.6264 30.6862 56.2591 30.3188 55.8061 30.3188H55.8014C55.3484 30.3188 54.9834 30.6862 54.9834 31.1392C54.9834 31.5921 55.3531 31.9595 55.8061 31.9595Z" fill="white"/>
<path d="M60.2338 31.9595C60.6868 31.9595 61.0541 31.5921 61.0541 31.1392C61.0541 30.6862 60.6868 30.3188 60.2338 30.3188H60.2291C59.7762 30.3188 59.4111 30.6862 59.4111 31.1392C59.4111 31.5921 59.7808 31.9595 60.2338 31.9595Z" fill="white"/>
<path d="M51.3793 31.9595C51.8323 31.9595 52.1996 31.5921 52.1996 31.1392C52.1996 30.6862 51.8323 30.3188 51.3793 30.3188H51.3747C50.9217 30.3188 50.5566 30.6862 50.5566 31.1392C50.5566 31.5921 50.9263 31.9595 51.3793 31.9595Z" fill="white"/>
<path d="M29.7637 31.9595H42.0899C42.5429 31.9595 42.9102 31.5921 42.9102 31.1392C42.9102 30.6862 42.5429 30.3188 42.0899 30.3188H29.7637C29.3106 30.3188 28.9434 30.6862 28.9434 31.1392C28.9434 31.5921 29.3106 31.9595 29.7637 31.9595Z" fill="white"/>
<path d="M63.3684 26.0015H26.6317C25.1806 26.0015 24 27.182 24 28.6331V59.0079C24 60.4589 25.1806 61.6395 26.6317 61.6395H33.197C33.7205 62.4321 34.3281 63.1767 35.0155 63.8641C37.6828 66.5314 41.2287 68.0003 45 68.0003C48.7714 68.0003 52.3173 66.5314 54.9846 63.8641C55.6761 63.1725 56.2807 62.4264 56.7985 61.6395H63.3684C64.8194 61.6395 66 60.4589 66 59.0079V28.6331C66 27.182 64.8194 26.0015 63.3684 26.0015ZM26.6317 27.6421H63.3684C63.9148 27.6421 64.3594 28.0867 64.3594 28.6331V34.6398H25.6406V28.6331C25.6406 28.0867 26.0852 27.6421 26.6317 27.6421ZM63.3684 59.9989H57.7252C60.2451 54.7459 59.3323 48.2451 54.9846 43.8973C52.7742 41.687 49.9721 40.3002 46.8811 39.8869C43.8896 39.4871 40.7953 40.067 38.1679 41.5203C37.7714 41.7397 37.6278 42.2387 37.847 42.6352C38.0663 43.0316 38.5656 43.1752 38.9618 42.956C43.7996 40.2801 49.9113 41.1443 53.8244 45.0574C58.6896 49.9226 58.6896 57.8389 53.8244 62.7039C51.467 65.0613 48.3331 66.3596 45 66.3596C41.6669 66.3596 38.533 65.0613 36.1756 62.7039C32.263 58.7914 31.3989 52.6807 34.0741 47.8438C34.2934 47.4473 34.1497 46.9482 33.7533 46.7289C33.357 46.5096 32.8577 46.6532 32.6385 47.0497C31.1852 49.6771 30.6052 52.7711 31.0051 55.7618C31.2045 57.2527 31.6311 58.6762 32.2669 59.9988H26.6317C26.0852 59.9988 25.6406 59.5542 25.6406 59.0078V36.2802H64.3594V59.0078C64.3594 59.5543 63.9148 59.9989 63.3684 59.9989Z" fill="white"/>
<path d="M44.999 58.6068C45.4521 58.6068 45.8193 58.2394 45.8193 57.7865V55.8286C45.8193 55.3756 45.452 55.0083 44.999 55.0083C44.546 55.0083 44.1787 55.3756 44.1787 55.8286V57.7865C44.1787 58.2395 44.546 58.6068 44.999 58.6068Z" fill="white"/>
<path d="M44.9984 63.2826C48.8741 63.2826 52.0271 60.1294 52.0271 56.2538V53.117C52.0271 52.0557 51.264 51.1697 50.2577 50.9778V48.8269C50.2577 46.4053 48.2875 44.4351 45.8657 44.4351H44.1311C41.7094 44.4351 39.7392 46.4053 39.7392 48.8269V50.9781C38.7328 51.1707 37.9697 52.0563 37.9697 53.117V56.2538C37.9696 60.1295 41.1228 63.2826 44.9984 63.2826ZM41.3798 48.8269C41.3798 47.3099 42.614 46.0757 44.1311 46.0757H45.8657C47.3828 46.0757 48.6171 47.3099 48.6171 48.8269V50.9387H41.3798V48.8269ZM39.6103 53.117C39.6103 52.8255 39.8576 52.5794 40.1503 52.5794H49.8488C50.1403 52.5794 50.3865 52.8255 50.3865 53.117V56.2538C50.3865 59.2248 47.9694 61.6419 44.9984 61.6419C42.0274 61.6419 39.6103 59.2248 39.6103 56.2538V53.117Z" fill="white"/>
<path d="M35.0156 43.8965C34.6953 44.2169 34.6953 44.7363 35.0156 45.0567C35.1758 45.2168 35.3858 45.297 35.5957 45.297C35.8056 45.297 36.0156 45.2168 36.1757 45.0567L36.178 45.0544C36.4984 44.7341 36.4972 44.2158 36.1769 43.8955C35.8565 43.5751 35.3361 43.5762 35.0156 43.8965Z" fill="white"/>
</g>
<defs>
<clipPath id="clip0_79_47">
<rect width="42" height="42" fill="white" transform="translate(24 26)"/>
</clipPath>
</defs>
</svg>
