<svg width="93" height="91" viewBox="0 0 93 91" fill="none" xmlns="http://www.w3.org/2000/svg">
<path d="M18.4934 25.0876C6.49372 37.5791 -0.00623742 53.072 13.9933 66.0688C25.9938 77.2098 35.4937 84.5607 55.9936 79.563C76.4935 74.5653 84.349 64.2218 84.349 48.5594C84.3489 33.584 73.0913 30.1997 60.9934 17.5914C37.4938 -6.89968 28.2515 14.9295 18.4934 25.0876Z" fill="#92C4FF"/>
<path d="M78.0001 33.5001C78.0001 64.5001 67.0001 70 56.0001 75.5641C45.0002 81.1282 25.5001 88.4999 17.5001 75C9.72013 61.8713 18.475 57.5782 15.0001 46.0001C10.5001 31.0065 16.6704 12.2434 31.5001 14.5001C54.5001 18 78.0001 8.32138 78.0001 33.5001Z" fill="#907AFF"/>
<g clip-path="url(#clip0_79_50)">
<path d="M65.0984 26.0053C56.5092 25.8513 46.7137 30.3411 40.5134 37.306C34.588 37.4178 28.8185 39.847 24.5707 44.0948C24.3232 44.3386 24.2352 44.7035 24.3434 45.0335C24.4534 45.3653 24.7394 45.6055 25.0841 45.655L32.1497 46.667L31.277 47.6441C30.9525 48.0071 30.969 48.559 31.3137 48.9036L43.0965 60.6865C43.2744 60.8643 43.509 60.9541 43.7455 60.9541C43.9637 60.9541 44.1819 60.8771 44.356 60.7213L45.3332 59.8486L46.3452 66.9143C46.3947 67.259 46.666 67.512 46.9942 67.622C47.0785 67.6495 47.1665 67.6623 47.2564 67.6623C47.5167 67.6623 47.7825 67.5486 47.9659 67.3671C52.155 63.178 54.5842 57.4085 54.696 51.4831C61.6682 45.27 66.1947 35.4781 65.9949 26.9C65.982 26.4123 65.5879 26.0181 65.0984 26.0053ZM56.6504 41.8306C55.7575 42.7235 54.5842 43.1708 53.409 43.1708C52.2339 43.1708 51.0605 42.7235 50.1677 41.8306C48.382 40.0431 48.382 37.1355 50.1677 35.348C51.9552 33.5605 54.8629 33.5605 56.6504 35.348C58.4379 37.1355 58.4379 40.045 56.6504 41.8306Z" fill="white"/>
<path d="M26.9941 56.9924C25.0324 58.954 22.3393 67.8164 22.0386 68.8192C21.9414 69.1419 22.0313 69.4921 22.2678 69.7304C22.4438 69.9064 22.6766 69.9999 22.9168 69.9999C23.0048 69.9999 23.0928 69.9871 23.1808 69.9614C24.1836 69.6607 33.0459 66.9676 35.0076 65.0059C37.2168 62.7967 37.2168 59.2015 35.0076 56.9924C32.7966 54.7832 29.2033 54.785 26.9941 56.9924Z" fill="white"/>
</g>
<defs>
<clipPath id="clip0_79_50">
<rect width="44" height="44" fill="white" transform="translate(22 26)"/>
</clipPath>
</defs>
</svg>
