<svg width="13" height="15" viewBox="0 0 13 15" fill="none" xmlns="http://www.w3.org/2000/svg">
<path d="M11.6543 5.6543C11.6543 2.80766 9.34663 0.5 6.5 0.5C3.65337 0.5 1.3457 2.80766 1.34571 5.6543C1.34571 6.08586 1.40512 6.59325 1.52615 7.07183C1.64866 7.55623 1.82497 7.97405 2.03585 8.25352L1.66754 8.53144L2.03585 8.25353L6.5 14.1699L10.9642 8.25353C11.4561 7.60152 11.6543 6.65118 11.6543 5.6543ZM3.62055 5.65429C3.62055 4.06421 4.90991 2.77484 6.5 2.77484C8.0901 2.77484 9.37945 4.06421 9.37945 5.6543C9.37945 7.24439 8.09009 8.53375 6.5 8.53375C4.90991 8.53375 3.62055 7.24439 3.62055 5.65429Z" fill="#00E0FF" stroke="#5256B4"/>
</svg>
