<svg width="12" height="15" viewBox="0 0 12 15" fill="none" xmlns="http://www.w3.org/2000/svg">
<path d="M10.7773 5.6543C10.7773 2.7746 8.60651 0.5 6 0.5C3.39348 0.5 1.22265 2.7746 1.22266 5.6543C1.22266 6.08868 1.27844 6.59869 1.39194 7.07956C1.50693 7.5667 1.67244 7.98663 1.86974 8.26679L1.46094 8.55469L1.86974 8.26679L6 14.1316L10.1303 8.26679C10.5911 7.61245 10.7773 6.65625 10.7773 5.6543ZM3.27918 5.65429C3.27918 4.09726 4.46557 2.77484 6 2.77484C7.53443 2.77484 8.72082 4.09726 8.72082 5.6543C8.72082 7.21134 7.53442 8.53375 6 8.53375C4.46557 8.53375 3.27918 7.21134 3.27918 5.65429Z" fill="#7D52B4" stroke="#5256B4"/>
</svg>
