<svg width="24" height="24" viewBox="0 0 24 24" fill="none" xmlns="http://www.w3.org/2000/svg">
<g clip-path="url(#clip0_5_233)">
<path d="M12 7C12.9797 6.99994 13.9378 7.28769 14.7553 7.8275C15.5729 8.36731 16.2138 9.1354 16.5986 10.0364C16.9833 10.9373 17.0949 11.9315 16.9195 12.8953C16.7441 13.8592 16.2893 14.7502 15.6118 15.4579C14.9343 16.1655 14.0638 16.6585 13.1085 16.8756C12.1532 17.0928 11.1552 17.0245 10.2383 16.6793C9.3215 16.334 8.52629 15.7271 7.95146 14.9338C7.37663 14.1405 7.04752 13.1958 7.005 12.217L7 12L7.005 11.783C7.06092 10.4958 7.61161 9.27978 8.54222 8.38866C9.47284 7.49754 10.7115 7.00007 12 7Z" fill="black"/>
</g>
<g clip-path="url(#clip1_5_233)">
<path d="M12 8.25C12.7348 8.24996 13.4533 8.46577 14.0665 8.87062C14.6797 9.27548 15.1604 9.85155 15.4489 10.5273C15.7375 11.203 15.8212 11.9486 15.6896 12.6715C15.558 13.3944 15.217 14.0627 14.7089 14.5934C14.2007 15.1241 13.5479 15.4939 12.8314 15.6567C12.1149 15.8196 11.3664 15.7684 10.6788 15.5094C9.99113 15.2505 9.39471 14.7953 8.96359 14.2003C8.53247 13.6053 8.28564 12.8968 8.25375 12.1628L8.25 12L8.25375 11.8372C8.29569 10.8718 8.70871 9.95983 9.40667 9.29149C10.1046 8.62316 11.0337 8.25006 12 8.25Z" fill="#437AAE"/>
</g>
<defs>
<clipPath id="clip0_5_233">
<rect width="24" height="24" fill="white"/>
</clipPath>
<clipPath id="clip1_5_233">
<rect width="18" height="18" fill="white" transform="translate(3 3)"/>
</clipPath>
</defs>
</svg>
