<svg width="114" height="114" viewBox="0 0 114 114" fill="none" xmlns="http://www.w3.org/2000/svg">
<g clip-path="url(#clip0_1_60)">
<path d="M96.9316 77.6467C91.8433 72.1335 85.6684 67.7338 78.796 64.7245C71.9235 61.7153 64.5024 60.1617 57 60.1617C49.4976 60.1617 42.0764 61.7153 35.204 64.7245C28.3315 67.7338 22.1567 72.1335 17.0683 77.6467C16.2827 78.5153 15.8433 79.6421 15.8333 80.8133V99.8133C15.85 101.062 16.3578 102.254 17.2468 103.131C18.1357 104.008 19.3344 104.5 20.5833 104.5H93.4166C94.6764 104.5 95.8846 104 96.7754 103.109C97.6662 102.218 98.1666 101.01 98.1666 99.75V80.75C98.1414 79.6007 97.703 78.499 96.9316 77.6467Z" fill="black" fill-opacity="0.45"/>
<path d="M57 53.8333C69.2423 53.8333 79.1666 43.909 79.1666 31.6667C79.1666 19.4244 69.2423 9.5 57 9.5C44.7577 9.5 34.8333 19.4244 34.8333 31.6667C34.8333 43.909 44.7577 53.8333 57 53.8333Z" fill="black" fill-opacity="0.45"/>
</g>
<rect x="0.5" y="0.5" width="113" height="113" rx="4.5" stroke="black" stroke-opacity="0.25"/>
<defs>
<clipPath id="clip0_1_60">
<rect width="114" height="114" rx="5" fill="white"/>
</clipPath>
</defs>
</svg>
