<svg width="35" height="35" viewBox="0 0 35 35" fill="none" xmlns="http://www.w3.org/2000/svg">
<path d="M7.65625 18.5938H29.5312C29.8213 18.5938 30.0995 18.4785 30.3046 18.2734C30.5098 18.0683 30.625 17.7901 30.625 17.5C30.625 17.2099 30.5098 16.9317 30.3046 16.7266C30.0995 16.5215 29.8213 16.4062 29.5312 16.4062H7.65625C7.36617 16.4062 7.08797 16.5215 6.88285 16.7266C6.67773 16.9317 6.5625 17.2099 6.5625 17.5C6.5625 17.7901 6.67773 18.0683 6.88285 18.2734C7.08797 18.4785 7.36617 18.5938 7.65625 18.5938Z" fill="#D0D0D0"/>
<path d="M8.10906 17.5L17.1806 8.43063C17.386 8.22526 17.5014 7.9467 17.5014 7.65626C17.5014 7.36581 17.386 7.08726 17.1806 6.88188C16.9753 6.67651 16.6967 6.56113 16.4063 6.56113C16.1158 6.56113 15.8373 6.67651 15.6319 6.88188L5.78813 16.7256C5.68627 16.8272 5.60546 16.9479 5.55032 17.0808C5.49518 17.2137 5.4668 17.3561 5.4668 17.5C5.4668 17.6439 5.49518 17.7863 5.55032 17.9192C5.60546 18.0521 5.68627 18.1728 5.78813 18.2744L15.6319 28.1181C15.8373 28.3235 16.1158 28.4389 16.4063 28.4389C16.6967 28.4389 16.9753 28.3235 17.1806 28.1181C17.386 27.9128 17.5014 27.6342 17.5014 27.3438C17.5014 27.0533 17.386 26.7748 17.1806 26.5694L8.10906 17.5Z" fill="#D0D0D0"/>
</svg>
