<svg width="11" height="11" viewBox="0 0 11 11" fill="none" xmlns="http://www.w3.org/2000/svg">
<path fill-rule="evenodd" clip-rule="evenodd" d="M0.0833282 2.25C0.0833282 1.81902 0.254533 1.4057 0.55928 1.10095C0.864026 0.796205 1.27735 0.625 1.70833 0.625H9.29166C9.72264 0.625 10.136 0.796205 10.4407 1.10095C10.7455 1.4057 10.9167 1.81902 10.9167 2.25V7.66667C10.9167 8.09764 10.7455 8.51097 10.4407 8.81572C10.136 9.12046 9.72264 9.29167 9.29166 9.29167H5.1387L3.33333 10.6458C2.88699 10.9806 2.24999 10.6621 2.24999 10.1042V9.29167H1.70833C1.27735 9.29167 0.864026 9.12046 0.55928 8.81572C0.254533 8.51097 0.0833282 8.09764 0.0833282 7.66667V2.25ZM1.70833 1.70833C1.56467 1.70833 1.42689 1.7654 1.32531 1.86698C1.22373 1.96857 1.16666 2.10634 1.16666 2.25V7.66667C1.16666 7.81033 1.22373 7.9481 1.32531 8.04968C1.42689 8.15127 1.56467 8.20833 1.70833 8.20833H2.52083C2.73632 8.20833 2.94298 8.29394 3.09535 8.44631C3.24773 8.59868 3.33333 8.80535 3.33333 9.02083V9.29167L4.4887 8.425C4.67622 8.28436 4.9043 8.20833 5.1387 8.20833H9.29166C9.43532 8.20833 9.5731 8.15127 9.67468 8.04968C9.77626 7.9481 9.83333 7.81033 9.83333 7.66667V2.25C9.83333 2.10634 9.77626 1.96857 9.67468 1.86698C9.5731 1.7654 9.43532 1.70833 9.29166 1.70833H1.70833Z" fill="black" fill-opacity="0.25"/>
</svg>
