<svg width="56" height="45" viewBox="0 0 56 45" fill="none" xmlns="http://www.w3.org/2000/svg">
<path d="M24.2285 36.4062C24.2285 36.0742 24.1764 35.7812 24.0723 35.5273C23.9746 35.2669 23.7988 35.0326 23.5449 34.8242C23.2975 34.6159 22.9525 34.4173 22.5098 34.2285C22.0736 34.0397 21.5202 33.8477 20.8496 33.6523C20.1465 33.444 19.5117 33.2129 18.9453 32.959C18.3789 32.6986 17.8939 32.4023 17.4902 32.0703C17.0866 31.7383 16.7773 31.3574 16.5625 30.9277C16.3477 30.498 16.2402 30.0065 16.2402 29.4531C16.2402 28.8997 16.3542 28.3887 16.582 27.9199C16.8099 27.4512 17.1354 27.0443 17.5586 26.6992C17.9883 26.3477 18.4993 26.0742 19.0918 25.8789C19.6842 25.6836 20.3451 25.5859 21.0742 25.5859C22.1419 25.5859 23.0469 25.791 23.7891 26.2012C24.5378 26.6048 25.1074 27.1354 25.498 27.793C25.8887 28.444 26.084 29.1406 26.084 29.8828H24.209C24.209 29.349 24.0951 28.877 23.8672 28.4668C23.6393 28.0501 23.2943 27.7246 22.832 27.4902C22.3698 27.2493 21.7839 27.1289 21.0742 27.1289C20.4036 27.1289 19.8503 27.2298 19.4141 27.4316C18.9779 27.6335 18.6523 27.9069 18.4375 28.252C18.2292 28.597 18.125 28.9909 18.125 29.4336C18.125 29.7331 18.1868 30.0065 18.3105 30.2539C18.4408 30.4948 18.6393 30.7194 18.9062 30.9277C19.1797 31.1361 19.5247 31.3281 19.9414 31.5039C20.3646 31.6797 20.8691 31.849 21.4551 32.0117C22.2624 32.2396 22.959 32.4935 23.5449 32.7734C24.1309 33.0534 24.6126 33.3691 24.9902 33.7207C25.3743 34.0658 25.6576 34.4596 25.8398 34.9023C26.0286 35.3385 26.123 35.8333 26.123 36.3867C26.123 36.9661 26.0059 37.4902 25.7715 37.959C25.5371 38.4277 25.2018 38.8281 24.7656 39.1602C24.3294 39.4922 23.8053 39.7493 23.1934 39.9316C22.5879 40.1074 21.9108 40.1953 21.1621 40.1953C20.5046 40.1953 19.8568 40.1042 19.2188 39.9219C18.5872 39.7396 18.0111 39.4661 17.4902 39.1016C16.9759 38.737 16.5625 38.2878 16.25 37.7539C15.944 37.2135 15.791 36.5885 15.791 35.8789H17.666C17.666 36.3672 17.7604 36.7871 17.9492 37.1387C18.138 37.4837 18.3952 37.7702 18.7207 37.998C19.0527 38.2259 19.4271 38.3952 19.8438 38.5059C20.2669 38.61 20.7064 38.6621 21.1621 38.6621C21.8197 38.6621 22.3763 38.571 22.832 38.3887C23.2878 38.2064 23.6328 37.946 23.8672 37.6074C24.1081 37.2689 24.2285 36.8685 24.2285 36.4062ZM34.4824 38.1934V32.7539C34.4824 32.3372 34.3978 31.9759 34.2285 31.6699C34.0658 31.3574 33.8184 31.1165 33.4863 30.9473C33.1543 30.778 32.7441 30.6934 32.2559 30.6934C31.8001 30.6934 31.3997 30.7715 31.0547 30.9277C30.7161 31.084 30.4492 31.2891 30.2539 31.543C30.0651 31.7969 29.9707 32.0703 29.9707 32.3633H28.1641C28.1641 31.9857 28.2617 31.6113 28.457 31.2402C28.6523 30.8691 28.9323 30.5339 29.2969 30.2344C29.668 29.9284 30.1107 29.6875 30.625 29.5117C31.1458 29.3294 31.7253 29.2383 32.3633 29.2383C33.1315 29.2383 33.8086 29.3685 34.3945 29.6289C34.987 29.8893 35.4492 30.2832 35.7812 30.8105C36.1198 31.3314 36.2891 31.9857 36.2891 32.7734V37.6953C36.2891 38.0469 36.3184 38.4212 36.377 38.8184C36.4421 39.2155 36.5365 39.5573 36.6602 39.8438V40H34.7754C34.6842 39.7917 34.6126 39.515 34.5605 39.1699C34.5085 38.8184 34.4824 38.4928 34.4824 38.1934ZM34.7949 33.5938L34.8145 34.8633H32.9883C32.474 34.8633 32.015 34.9056 31.6113 34.9902C31.2077 35.0684 30.8691 35.1888 30.5957 35.3516C30.3223 35.5143 30.1139 35.7194 29.9707 35.9668C29.8275 36.2077 29.7559 36.4909 29.7559 36.8164C29.7559 37.1484 29.8307 37.4512 29.9805 37.7246C30.1302 37.998 30.3548 38.2161 30.6543 38.3789C30.9603 38.5352 31.3346 38.6133 31.7773 38.6133C32.3307 38.6133 32.819 38.4961 33.2422 38.2617C33.6654 38.0273 34.0007 37.7409 34.248 37.4023C34.502 37.0638 34.6387 36.735 34.6582 36.416L35.4297 37.2852C35.3841 37.5586 35.2604 37.8613 35.0586 38.1934C34.8568 38.5254 34.5866 38.8444 34.248 39.1504C33.916 39.4499 33.5189 39.7005 33.0566 39.9023C32.6009 40.0977 32.0866 40.1953 31.5137 40.1953C30.7975 40.1953 30.1693 40.0553 29.6289 39.7754C29.0951 39.4954 28.6784 39.1211 28.3789 38.6523C28.0859 38.1771 27.9395 37.6465 27.9395 37.0605C27.9395 36.4941 28.0501 35.9961 28.2715 35.5664C28.4928 35.1302 28.8118 34.7689 29.2285 34.4824C29.6452 34.1895 30.1465 33.9681 30.7324 33.8184C31.3184 33.6686 31.9727 33.5938 32.6953 33.5938H34.7949ZM41.8262 40H40.0195V28.3203C40.0195 27.5586 40.1562 26.9173 40.4297 26.3965C40.7096 25.8691 41.11 25.472 41.6309 25.2051C42.1517 24.9316 42.7702 24.7949 43.4863 24.7949C43.6947 24.7949 43.903 24.8079 44.1113 24.834C44.3262 24.86 44.5345 24.8991 44.7363 24.9512L44.6387 26.4258C44.502 26.3932 44.3457 26.3704 44.1699 26.3574C44.0007 26.3444 43.8314 26.3379 43.6621 26.3379C43.278 26.3379 42.946 26.416 42.666 26.5723C42.3926 26.722 42.1842 26.9434 42.041 27.2363C41.8978 27.5293 41.8262 27.8906 41.8262 28.3203V40ZM44.0723 29.4336V30.8203H38.3496V29.4336H44.0723ZM50.2344 40.1953C49.4987 40.1953 48.8314 40.0716 48.2324 39.8242C47.64 39.5703 47.1289 39.2155 46.6992 38.7598C46.276 38.304 45.9505 37.7637 45.7227 37.1387C45.4948 36.5137 45.3809 35.8301 45.3809 35.0879V34.6777C45.3809 33.8184 45.5078 33.0534 45.7617 32.3828C46.0156 31.7057 46.3607 31.1328 46.7969 30.6641C47.2331 30.1953 47.7279 29.8405 48.2812 29.5996C48.8346 29.3587 49.4076 29.2383 50 29.2383C50.7552 29.2383 51.4062 29.3685 51.9531 29.6289C52.5065 29.8893 52.959 30.2539 53.3105 30.7227C53.6621 31.1849 53.9225 31.7318 54.0918 32.3633C54.2611 32.9883 54.3457 33.6719 54.3457 34.4141V35.2246H46.4551V33.75H52.5391V33.6133C52.513 33.1445 52.4154 32.6888 52.2461 32.2461C52.0833 31.8034 51.8229 31.4388 51.4648 31.1523C51.1068 30.8659 50.6185 30.7227 50 30.7227C49.5898 30.7227 49.2122 30.8105 48.8672 30.9863C48.5221 31.1556 48.2259 31.4095 47.9785 31.748C47.7311 32.0866 47.5391 32.5 47.4023 32.9883C47.2656 33.4766 47.1973 34.0397 47.1973 34.6777V35.0879C47.1973 35.5892 47.2656 36.0612 47.4023 36.5039C47.5456 36.9401 47.7507 37.3242 48.0176 37.6562C48.291 37.9883 48.6198 38.2487 49.0039 38.4375C49.3945 38.6263 49.8372 38.7207 50.332 38.7207C50.9701 38.7207 51.5104 38.5905 51.9531 38.3301C52.3958 38.0697 52.7832 37.7214 53.1152 37.2852L54.209 38.1543C53.9811 38.4993 53.6914 38.8281 53.3398 39.1406C52.9883 39.4531 52.5553 39.707 52.041 39.9023C51.5332 40.0977 50.931 40.1953 50.2344 40.1953Z" fill="#85EEA6"/>
<path d="M8.13281 14.2891H3.78516L3.76172 12.1445H7.55859C8.19922 12.1445 8.74219 12.0508 9.1875 11.8633C9.64062 11.668 9.98438 11.3906 10.2188 11.0312C10.4531 10.6641 10.5703 10.2227 10.5703 9.70703C10.5703 9.13672 10.4609 8.67188 10.2422 8.3125C10.0234 7.95312 9.6875 7.69141 9.23438 7.52734C8.78906 7.36328 8.21875 7.28125 7.52344 7.28125H4.67578V22H1.73438V4.9375H7.52344C8.46094 4.9375 9.29688 5.02734 10.0312 5.20703C10.7734 5.38672 11.4023 5.66797 11.918 6.05078C12.4414 6.42578 12.8359 6.90234 13.1016 7.48047C13.375 8.05859 13.5117 8.74609 13.5117 9.54297C13.5117 10.2461 13.3438 10.8906 13.0078 11.4766C12.6719 12.0547 12.1758 12.5273 11.5195 12.8945C10.8633 13.2617 10.0469 13.4805 9.07031 13.5508L8.13281 14.2891ZM8.00391 22H2.85938L4.18359 19.668H8.00391C8.66797 19.668 9.22266 19.5586 9.66797 19.3398C10.1133 19.1133 10.4453 18.8047 10.6641 18.4141C10.8906 18.0156 11.0039 17.5508 11.0039 17.0195C11.0039 16.4648 10.9062 15.9844 10.7109 15.5781C10.5156 15.1641 10.207 14.8477 9.78516 14.6289C9.36328 14.4023 8.8125 14.2891 8.13281 14.2891H4.82812L4.85156 12.1445H9.15234L9.82031 12.9531C10.7578 12.9844 11.5273 13.1914 12.1289 13.5742C12.7383 13.957 13.1914 14.4531 13.4883 15.0625C13.7852 15.6719 13.9336 16.3281 13.9336 17.0312C13.9336 18.1172 13.6953 19.0273 13.2188 19.7617C12.75 20.4961 12.0742 21.0547 11.1914 21.4375C10.3086 21.8125 9.24609 22 8.00391 22ZM22.207 22.2344C21.2695 22.2344 20.4219 22.082 19.6641 21.7773C18.9141 21.4648 18.2734 21.0312 17.7422 20.4766C17.2188 19.9219 16.8164 19.2695 16.5352 18.5195C16.2539 17.7695 16.1133 16.9609 16.1133 16.0938V15.625C16.1133 14.6328 16.2578 13.7344 16.5469 12.9297C16.8359 12.125 17.2383 11.4375 17.7539 10.8672C18.2695 10.2891 18.8789 9.84766 19.582 9.54297C20.2852 9.23828 21.0469 9.08594 21.8672 9.08594C22.7734 9.08594 23.5664 9.23828 24.2461 9.54297C24.9258 9.84766 25.4883 10.2773 25.9336 10.832C26.3867 11.3789 26.7227 12.0312 26.9414 12.7891C27.168 13.5469 27.2812 14.3828 27.2812 15.2969V16.5039H17.4844V14.4766H24.4922V14.2539C24.4766 13.7461 24.375 13.2695 24.1875 12.8242C24.0078 12.3789 23.7305 12.0195 23.3555 11.7461C22.9805 11.4727 22.4805 11.3359 21.8555 11.3359C21.3867 11.3359 20.9688 11.4375 20.6016 11.6406C20.2422 11.8359 19.9414 12.1211 19.6992 12.4961C19.457 12.8711 19.2695 13.3242 19.1367 13.8555C19.0117 14.3789 18.9492 14.9688 18.9492 15.625V16.0938C18.9492 16.6484 19.0234 17.1641 19.1719 17.6406C19.3281 18.1094 19.5547 18.5195 19.8516 18.8711C20.1484 19.2227 20.5078 19.5 20.9297 19.7031C21.3516 19.8984 21.832 19.9961 22.3711 19.9961C23.0508 19.9961 23.6562 19.8594 24.1875 19.5859C24.7188 19.3125 25.1797 18.9258 25.5703 18.4258L27.0586 19.8672C26.7852 20.2656 26.4297 20.6484 25.9922 21.0156C25.5547 21.375 25.0195 21.668 24.3867 21.8945C23.7617 22.1211 23.0352 22.2344 22.207 22.2344Z" fill="#437AAE"/>
</svg>
