<svg width="44" height="40" viewBox="0 0 44 40" fill="none" xmlns="http://www.w3.org/2000/svg">
<rect width="44" height="40" rx="4" fill="white"/>
<path d="M34.0357 19.5357H33.0304C32.7991 16.8109 31.6115 14.2558 29.6779 12.3221C27.7442 10.3885 25.1891 9.20095 22.4643 8.96955V7.96429C22.4643 7.70854 22.3627 7.46327 22.1819 7.28243C22.001 7.10159 21.7557 7 21.5 7C21.2443 7 20.999 7.10159 20.8181 7.28243C20.6373 7.46327 20.5357 7.70854 20.5357 7.96429V8.96955C17.8109 9.20095 15.2558 10.3885 13.3221 12.3221C11.3885 14.2558 10.2009 16.8109 9.96955 19.5357H8.96429C8.70854 19.5357 8.46327 19.6373 8.28243 19.8181C8.10159 19.999 8 20.2443 8 20.5C8 20.7557 8.10159 21.001 8.28243 21.1819C8.46327 21.3627 8.70854 21.4643 8.96429 21.4643H9.96955C10.2009 24.1891 11.3885 26.7442 13.3221 28.6779C15.2558 30.6115 17.8109 31.7991 20.5357 32.0304V33.0357C20.5357 33.2915 20.6373 33.5367 20.8181 33.7176C20.999 33.8984 21.2443 34 21.5 34C21.7557 34 22.001 33.8984 22.1819 33.7176C22.3627 33.5367 22.4643 33.2915 22.4643 33.0357V32.0304C25.1891 31.7991 27.7442 30.6115 29.6779 28.6779C31.6115 26.7442 32.7991 24.1891 33.0304 21.4643H34.0357C34.2915 21.4643 34.5367 21.3627 34.7176 21.1819C34.8984 21.001 35 20.7557 35 20.5C35 20.2443 34.8984 19.999 34.7176 19.8181C34.5367 19.6373 34.2915 19.5357 34.0357 19.5357ZM22.4643 30.0946V29.1786C22.4643 28.9228 22.3627 28.6776 22.1819 28.4967C22.001 28.3159 21.7557 28.2143 21.5 28.2143C21.2443 28.2143 20.999 28.3159 20.8181 28.4967C20.6373 28.6776 20.5357 28.9228 20.5357 29.1786V30.0946C18.3237 29.8689 16.2573 28.8872 14.6851 27.3149C13.1128 25.7427 12.1311 23.6763 11.9054 21.4643H12.8214C13.0772 21.4643 13.3224 21.3627 13.5033 21.1819C13.6841 21.001 13.7857 20.7557 13.7857 20.5C13.7857 20.2443 13.6841 19.999 13.5033 19.8181C13.3224 19.6373 13.0772 19.5357 12.8214 19.5357H11.9054C12.1311 17.3237 13.1128 15.2573 14.6851 13.6851C16.2573 12.1128 18.3237 11.1311 20.5357 10.9054V11.8214C20.5357 12.0772 20.6373 12.3224 20.8181 12.5033C20.999 12.6841 21.2443 12.7857 21.5 12.7857C21.7557 12.7857 22.001 12.6841 22.1819 12.5033C22.3627 12.3224 22.4643 12.0772 22.4643 11.8214V10.9054C24.6763 11.1311 26.7427 12.1128 28.3149 13.6851C29.8872 15.2573 30.8689 17.3237 31.0946 19.5357H30.1786C29.9228 19.5357 29.6776 19.6373 29.4967 19.8181C29.3159 19.999 29.2143 20.2443 29.2143 20.5C29.2143 20.7557 29.3159 21.001 29.4967 21.1819C29.6776 21.3627 29.9228 21.4643 30.1786 21.4643H31.0946C30.8689 23.6763 29.8872 25.7427 28.3149 27.3149C26.7427 28.8872 24.6763 29.8689 22.4643 30.0946ZM21.5 15.6786C20.5464 15.6786 19.6142 15.9613 18.8214 16.4911C18.0285 17.0209 17.4105 17.7739 17.0456 18.6549C16.6807 19.5359 16.5852 20.5053 16.7712 21.4406C16.9572 22.3759 17.4164 23.235 18.0907 23.9093C18.765 24.5836 19.6241 25.0428 20.5594 25.2288C21.4947 25.4148 22.4641 25.3193 23.3451 24.9544C24.2261 24.5895 24.9791 23.9715 25.5089 23.1786C26.0387 22.3858 26.3214 21.4536 26.3214 20.5C26.3214 19.2213 25.8135 17.9949 24.9093 17.0907C24.0051 16.1865 22.7787 15.6786 21.5 15.6786ZM21.5 23.3929C20.9278 23.3929 20.3685 23.2232 19.8928 22.9053C19.4171 22.5875 19.0463 22.1356 18.8273 21.607C18.6084 21.0784 18.5511 20.4968 18.6627 19.9356C18.7744 19.3745 19.0499 18.859 19.4544 18.4544C19.859 18.0499 20.3745 17.7744 20.9356 17.6627C21.4968 17.5511 22.0784 17.6084 22.607 17.8273C23.1356 18.0463 23.5875 18.4171 23.9053 18.8928C24.2232 19.3685 24.3929 19.9278 24.3929 20.5C24.3929 21.2672 24.0881 22.003 23.5456 22.5456C23.003 23.0881 22.2672 23.3929 21.5 23.3929Z" fill="black" fill-opacity="0.5"/>
</svg>
