<svg width="25" height="24" viewBox="0 0 25 24" fill="none" xmlns="http://www.w3.org/2000/svg">
<path d="M23.4846 11.1056L1.48455 0.105612C1.31212 0.0193786 1.11844 -0.0151732 0.926831 0.00611689C0.735219 0.027407 0.553847 0.103631 0.404552 0.225612C0.261977 0.345104 0.155559 0.501998 0.0972618 0.678656C0.0389648 0.855313 0.0311003 1.04473 0.0745524 1.22561L3.03455 11.9956L0.0345524 22.7356C-0.00622112 22.8867 -0.0109806 23.0452 0.0206567 23.1984C0.052294 23.3516 0.119446 23.4953 0.216711 23.6179C0.313977 23.7404 0.438643 23.8384 0.580686 23.904C0.722729 23.9697 0.878184 24.001 1.03455 23.9956C1.19109 23.9947 1.34523 23.957 1.48455 23.8856L23.4846 12.8856C23.6484 12.8017 23.7858 12.6742 23.8818 12.5172C23.9778 12.3601 24.0286 12.1797 24.0286 11.9956C24.0286 11.8116 23.9778 11.6311 23.8818 11.4741C23.7858 11.317 23.6484 11.1895 23.4846 11.1056ZM2.58455 21.1056L4.79455 12.9956H14.0346V10.9956H4.79455L2.58455 2.88561L20.7946 11.9956L2.58455 21.1056Z" fill="black" fill-opacity="0.25"/>
</svg>
