<svg width="44" height="40" viewBox="0 0 44 40" fill="none" xmlns="http://www.w3.org/2000/svg">
<rect width="44" height="40" rx="4" fill="white"/>
<path d="M21.5 25.25L16.3616 17.9937C15.5205 17.0007 14.9789 15.7892 14.7997 14.5002C14.6206 13.2112 14.8114 11.8979 15.3498 10.7132C15.8883 9.52842 16.7522 8.52104 17.8411 7.80833C18.9299 7.09562 20.1988 6.70692 21.5 6.6875C23.3037 6.70532 25.0269 7.43725 26.292 8.72297C27.5572 10.0087 28.2613 11.7434 28.25 13.5472C28.2507 15.1207 27.715 16.6475 26.7313 17.8756L21.5 25.25ZM21.5 8.375C20.1431 8.39058 18.8479 8.94401 17.8987 9.91375C16.9495 10.8835 16.424 12.1903 16.4375 13.5472C16.4432 14.7857 16.8887 15.9818 17.6947 16.9222L21.5 22.3138L25.4066 16.8125C26.1491 15.8856 26.5565 14.7348 26.5625 13.5472C26.576 12.1903 26.0505 10.8835 25.1013 9.91375C24.1521 8.94401 22.8569 8.39058 21.5 8.375Z" fill="black" fill-opacity="0.5"/>
<path d="M21.5 14.2812C22.432 14.2812 23.1875 13.5257 23.1875 12.5938C23.1875 11.6618 22.432 10.9062 21.5 10.9062C20.568 10.9062 19.8125 11.6618 19.8125 12.5938C19.8125 13.5257 20.568 14.2812 21.5 14.2812Z" fill="black" fill-opacity="0.5"/>
<path d="M31.625 15.125H29.9375V16.8125H31.625V28.625H11.375V16.8125H13.0625V15.125H11.375C10.9274 15.125 10.4982 15.3028 10.1818 15.6193C9.86529 15.9357 9.6875 16.3649 9.6875 16.8125V28.625C9.6875 29.0726 9.86529 29.5018 10.1818 29.8182C10.4982 30.1347 10.9274 30.3125 11.375 30.3125H31.625C32.0726 30.3125 32.5018 30.1347 32.8182 29.8182C33.1347 29.5018 33.3125 29.0726 33.3125 28.625V16.8125C33.3125 16.3649 33.1347 15.9357 32.8182 15.6193C32.5018 15.3028 32.0726 15.125 31.625 15.125Z" fill="black" fill-opacity="0.5"/>
</svg>
